<svg width="27" height="36" viewBox="0 0 27 36" fill="none" xmlns="http://www.w3.org/2000/svg">
<path d="M26.6002 26.6137L20.9828 20.251H23.1366C23.7701 20.251 24.3305 19.8994 24.5977 19.3327C24.8649 18.7674 24.777 18.1191 24.3671 17.6416L18.8734 11.2508H20.9048C21.5446 11.2508 22.1212 10.8746 22.3715 10.2938C22.619 9.72216 22.5023 9.05699 22.0734 8.60065L14.3199 0.340145C13.8959 -0.113382 13.1048 -0.113382 12.6801 0.340145L4.92589 8.60065C4.49698 9.05699 4.38096 9.72216 4.62776 10.2938C4.87808 10.8746 5.45536 11.2508 6.09522 11.2508H8.1266L2.63225 17.643C2.22372 18.1198 2.13583 18.7674 2.40232 19.3334C2.66951 19.8994 3.22922 20.251 3.86345 20.251H6.01717L0.399774 26.6137C-0.0221104 27.0912 -0.117738 27.7451 0.149456 28.3195C0.413134 28.8856 0.993226 29.2512 1.62676 29.2512H11.2499V30.9704L9.12013 34.3736C8.74606 35.1217 9.29029 36.0021 10.1263 36.0021H16.8737C17.7097 36.0021 18.2539 35.1217 17.8799 34.3736L15.7501 30.9704V29.2512H25.3732C26.0068 29.2512 26.5869 28.8856 26.8505 28.3195C27.1177 27.7451 27.0221 27.0912 26.6002 26.6137Z" fill="#5F926A"/>
</svg>
